<svg id="Capa_1" data-name="Capa 1" xmlns="http://www.w3.org/2000/svg" viewBox="0 0 31.89 36.37"><defs><style>.cls-1{fill:#fff;}</style></defs><path class="cls-1" d="M24.92,17.31l-4.4.66c0-.26,0-.46,0-.67,0-3.69.07-7.38,0-11.07a4.39,4.39,0,0,1,5.22-4.35A4.21,4.21,0,0,1,29.39,5.8,1.26,1.26,0,0,0,30.46,7a4,4,0,0,1,3,3.2,5.66,5.66,0,0,1-.2,2.15c-.15.7-.12,1,.49,1.34a3.93,3.93,0,0,1,1.39,5.78,1.58,1.58,0,0,0,0,2,3.72,3.72,0,0,1-.52,5,1.79,1.79,0,0,0-.51,2.12,4.07,4.07,0,0,1-3.42,5.21,1.69,1.69,0,0,0-1.54,1.38,4.36,4.36,0,0,1-4.67,3.07,4.29,4.29,0,0,1-4-3.5,2.18,2.18,0,0,1,.06-.84q2.05-7.87,4.13-15.74C24.79,17.87,24.84,17.65,24.92,17.31Z" transform="translate(-4.05 -1.81)"/><path class="cls-1" d="M15.12,22.86l4.36-.66c0,.24,0,.42,0,.61q0,5.57,0,11.13a4.21,4.21,0,0,1-3.71,4.19,4.41,4.41,0,0,1-5-2.92,1.89,1.89,0,0,0-1.67-1.53,4.05,4.05,0,0,1-3.25-5.47,1.4,1.4,0,0,0-.43-1.66A3.76,3.76,0,0,1,5,21.16a1.24,1.24,0,0,0,.12-1.27,2.61,2.61,0,0,0-.28-.52,3.89,3.89,0,0,1,1.29-5.63c.81-.51.86-.65.55-1.57A4,4,0,0,1,9.5,7c.68-.2,1.11-.53,1.14-1.28a4.35,4.35,0,0,1,5.09-3.84A4.27,4.27,0,0,1,19,4a3.29,3.29,0,0,1,.39,2.62C18,11.8,16.62,17,15.25,22.23,15.21,22.4,15.18,22.57,15.12,22.86Z" transform="translate(-4.05 -1.81)"/></svg>