<svg id="Capa_1" data-name="Capa 1" xmlns="http://www.w3.org/2000/svg" viewBox="0 0 36.73 36.73"><defs><style>.cls-1{fill:#fcfcfc;}</style></defs><path class="cls-1" d="M1.7,19.87V5.33C1.7,2.87,3,1.57,5.48,1.57h29.2c2.43,0,3.75,1.31,3.75,3.73V34.57c0,2.42-1.32,3.73-3.75,3.73H5.41A3.35,3.35,0,0,1,1.7,34.6ZM24.09,17c-2-1.2-4.15-1.5-6.21-2.12a3.62,3.62,0,0,1-1.08-.57,1.83,1.83,0,0,1-.72-1.93A1.74,1.74,0,0,1,17.36,11,2.81,2.81,0,0,1,21,12.5c.14.29.21.61.35.9.06.12.22.19.34.29.07-.13.21-.25.21-.38a20.07,20.07,0,0,0-.08-2.05.66.66,0,0,0-.4-.47,16,16,0,0,0-2.89-.56,3.56,3.56,0,0,0-3.61,2,.8.8,0,0,1-.59.32c-.66,0-1.33,0-2,0a1.34,1.34,0,0,0-.45.22c.13.07.26.2.4.21a.87.87,0,0,1,.91.95c0,1.52,0,3,0,4.56s-1.18,2.33-2.8,2.25A2.17,2.17,0,0,1,8,18.34C8,16.9,8,15.46,8,14c0-.74.19-.93.92-1,.13,0,.25-.15.37-.23-.13-.07-.27-.2-.4-.2-1,0-2,0-3,0-.13,0-.26.14-.39.21.13.08.26.22.39.21.69,0,.89.36.88,1,0,1.48,0,3,0,4.44a2.51,2.51,0,0,0,2,2.75,6.57,6.57,0,0,0,2.65.06,2.74,2.74,0,0,0,2.3-3c0-1.4,0-2.79,0-4.19,0-.65.19-.87.79-1a3.34,3.34,0,0,0,2.9,3.77L18,17a18.78,18.78,0,0,1,5.6,2,.81.81,0,0,1,.48.81c0,.82,0,1.63,0,2.45,0,.54-.23.84-.8.86-.16,0-.31.13-.47.2.17.08.33.22.5.22,1,0,2,0,3,0a4,4,0,0,1-1.08,3,7.28,7.28,0,0,1-6.43,2.55,6.13,6.13,0,0,1-5.12-3,4.26,4.26,0,0,1,.13-4.91A3.88,3.88,0,0,1,18,19.44a3.91,3.91,0,0,1,3.34,4.13,2.81,2.81,0,0,1-3.53,2.52,1.61,1.61,0,0,1-1.21-1.2l.24,0a1.33,1.33,0,1,0-1.07-1.44,2.52,2.52,0,0,0,2,3A3.08,3.08,0,0,0,21,25.45a3.68,3.68,0,0,0,.43-3.9A4.72,4.72,0,0,0,17,19a4.89,4.89,0,0,0-4.27,3.55,5.57,5.57,0,0,0,3.07,6.21,10,10,0,0,0,10.7-1.49,5.27,5.27,0,0,0,1.83-4.17,23.9,23.9,0,0,0-.38-2.51h.66c1.59,0,3.17,0,4.76,0,.2,0,.53-.08.59-.22.24-.55.39-1.14.58-1.72l-.2-.14a2.25,2.25,0,0,0-.48.44,2.3,2.3,0,0,1-2.31,1.21,13.43,13.43,0,0,0-1.42,0c-.89,0-1.09-.2-1.1-1.1,0-1.67,0-3.34,0-5,0-.77.16-.91.93-1,.15,0,.29-.16.43-.24-.14-.07-.28-.19-.41-.19H23.21c-.12,0-.25.14-.38.22.13.07.26.2.39.2.47,0,.85.15.86.66C24.11,14.71,24.09,15.77,24.09,17Z" transform="translate(-1.7 -1.57)"/><path class="cls-1" d="M27.66,19.92c-.78-.73-1.49-1.39-2.18-2.08a.76.76,0,0,1-.17-.52c0-1.09,0-2.18,0-3.28,0-.74.39-1,1.23-1s1.3.28,1.3,1c0,1.74,0,3.47,0,5.21A3.22,3.22,0,0,1,27.66,19.92Z" transform="translate(-1.7 -1.57)"/><path class="cls-1" d="M26.56,23.12c-1.31-.07-1.4-.72-1.17-2.52l.17-.07Z" transform="translate(-1.7 -1.57)"/></svg>